# xmcd
#
# Track frame offsets: 
#        150
#        14354
#        32841
#        57478
#        74864
#        90164
#        119337
#        144263
#        162782
#        180920
#
# Disc length: 2614 seconds
#
# Revision: 0
# Processed by: cddbd v1.5.2PL0 Copyright (c) Steve Scherf et al.
# Submitted via: ExactAudioCopy v0.99pb5
#
DISCID=7f0a340a
DTITLE=Roomful Of Blues - Jump Blues Classics
DYEAR=1900
DGENRE=Blues
TTITLE0=Lillie Mae
TTITLE1=Lost Mind
TTITLE2=Danger Zone
TTITLE3=I Tried
TTITLE4=Smack Dab In The Middle
TTITLE5=I Smell Trouble
TTITLE6=The Comeback
TTITLE7=Blind Love
TTITLE8=I'm Just Your Fool
TTITLE9=Mister Dollar
EXTD=
EXTT0=
EXTT1=
EXTT2=
EXTT3=
EXTT4=
EXTT5=
EXTT6=
EXTT7=
EXTT8=
EXTT9=
PLAYORDER=
